<svg width="20" height="20" viewBox="0 0 20 20" fill="none" xmlns="http://www.w3.org/2000/svg">
<g clip-path="url(#clip0_1153_444)">
<path d="M14.9998 3.33301H5.4165C4.1665 3.33301 1.6665 4.16634 1.6665 6.66634C1.6665 9.16634 4.1665 9.99967 5.4165 9.99967H14.5832C15.8332 9.99967 18.3332 10.833 18.3332 13.333C18.3332 15.833 15.8332 16.6663 14.5832 16.6663H4.99984" stroke="#CE63EE" stroke-width="1.66667" stroke-linecap="round" stroke-linejoin="round"/>
<path d="M16.6665 4.99984C17.1085 4.99984 17.5325 4.82424 17.845 4.51168C18.1576 4.19912 18.3332 3.7752 18.3332 3.33317C18.3332 2.89114 18.1576 2.46722 17.845 2.15466C17.5325 1.8421 17.1085 1.6665 16.6665 1.6665C16.2245 1.6665 15.8006 1.8421 15.488 2.15466C15.1754 2.46722 14.9998 2.89114 14.9998 3.33317C14.9998 3.7752 15.1754 4.19912 15.488 4.51168C15.8006 4.82424 16.2245 4.99984 16.6665 4.99984ZM3.33317 18.3332C3.7752 18.3332 4.19912 18.1576 4.51168 17.845C4.82424 17.5325 4.99984 17.1085 4.99984 16.6665C4.99984 16.2245 4.82424 15.8006 4.51168 15.488C4.19912 15.1754 3.7752 14.9998 3.33317 14.9998C2.89114 14.9998 2.46722 15.1754 2.15466 15.488C1.8421 15.8006 1.6665 16.2245 1.6665 16.6665C1.6665 17.1085 1.8421 17.5325 2.15466 17.845C2.46722 18.1576 2.89114 18.3332 3.33317 18.3332Z" stroke="#CE63EE" stroke-width="1.66667" stroke-linejoin="round"/>
</g>
<defs>
<clipPath id="clip0_1153_444">
<rect width="20" height="20" fill="white"/>
</clipPath>
</defs>
</svg>
