<svg width="17" height="17" viewBox="0 0 17 17" fill="none" xmlns="http://www.w3.org/2000/svg">
<path d="M7.75883 7.88162C7.10505 7.88162 6.46596 7.68775 5.92236 7.32453C5.37876 6.96132 4.95508 6.44506 4.70489 5.84105C4.4547 5.23704 4.38924 4.5724 4.51679 3.93118C4.64433 3.28997 4.95916 2.70097 5.42145 2.23868C5.88374 1.77639 6.47273 1.46157 7.11395 1.33402C7.75516 1.20648 8.4198 1.27194 9.02381 1.52213C9.62782 1.77232 10.1441 2.196 10.5073 2.7396C10.8705 3.28319 11.0644 3.92229 11.0644 4.57607C11.0644 5.45275 10.7161 6.29353 10.0962 6.91345C9.4763 7.53336 8.63552 7.88162 7.75883 7.88162ZM7.75883 2.25273C7.29185 2.25273 6.83535 2.39121 6.44707 2.65065C6.05878 2.91009 5.75615 3.27885 5.57745 3.71028C5.39874 4.14172 5.35198 4.61646 5.44309 5.07447C5.53419 5.53248 5.75906 5.95319 6.08927 6.2834C6.41948 6.61361 6.84019 6.83848 7.2982 6.92959C7.75621 7.02069 8.23095 6.97393 8.66239 6.79523C9.09382 6.61652 9.46258 6.31389 9.72202 5.92561C9.98146 5.53732 10.1199 5.08083 10.1199 4.61384C10.1199 4.30378 10.0589 3.99675 9.94021 3.71028C9.82155 3.42382 9.64764 3.16353 9.42839 2.94429C9.20914 2.72504 8.94885 2.55112 8.66239 2.43246C8.37592 2.3138 8.06889 2.25273 7.75883 2.25273ZM10.3891 8.45301C7.83366 7.87763 5.16011 8.1546 2.77688 9.24162C2.44911 9.39819 2.17256 9.64465 1.97944 9.95231C1.78632 10.26 1.68457 10.6162 1.68605 10.9794V13.7891C1.68605 13.8511 1.69827 13.9125 1.722 13.9698C1.74573 14.0271 1.78051 14.0792 1.82436 14.123C1.86821 14.1669 1.92027 14.2017 1.97756 14.2254C2.03485 14.2491 2.09626 14.2613 2.15827 14.2613C2.22029 14.2613 2.28169 14.2491 2.33898 14.2254C2.39628 14.2017 2.44833 14.1669 2.49218 14.123C2.53603 14.0792 2.57082 14.0271 2.59455 13.9698C2.61828 13.9125 2.6305 13.8511 2.6305 13.7891V10.9794C2.62638 10.7956 2.67603 10.6145 2.77333 10.4585C2.87064 10.3025 3.01138 10.1782 3.17827 10.1011C4.61391 9.43802 6.17749 9.0979 7.75883 9.10468C8.64486 9.10364 9.52785 9.20826 10.3891 9.41634V8.45301ZM10.4552 12.9438H13.3547V13.605H10.4552V12.9438Z" fill="#CE63EE"/>
<path d="M15.6637 10.1386H13.2223V11.083H15.1915V15.0355H8.50011V11.083H11.4751V11.2813C11.4751 11.4066 11.5249 11.5267 11.6134 11.6152C11.702 11.7038 11.8221 11.7536 11.9473 11.7536C12.0726 11.7536 12.1927 11.7038 12.2812 11.6152C12.3698 11.5267 12.4196 11.4066 12.4196 11.2813V9.44439C12.4196 9.31915 12.3698 9.19904 12.2812 9.11048C12.1927 9.02192 12.0726 8.97217 11.9473 8.97217C11.8221 8.97217 11.702 9.02192 11.6134 9.11048C11.5249 9.19904 11.4751 9.31915 11.4751 9.44439V10.1386H8.02789C7.90265 10.1386 7.78253 10.1883 7.69397 10.2769C7.60542 10.3654 7.55566 10.4855 7.55566 10.6108V15.5077C7.55566 15.633 7.60542 15.7531 7.69397 15.8416C7.78253 15.9302 7.90265 15.9799 8.02789 15.9799H15.6637C15.789 15.9799 15.9091 15.9302 15.9976 15.8416C16.0862 15.7531 16.1359 15.633 16.1359 15.5077V10.6108C16.1359 10.4855 16.0862 10.3654 15.9976 10.2769C15.9091 10.1883 15.789 10.1386 15.6637 10.1386Z" fill="#CE63EE"/>
</svg>
