<svg width="25" height="25" viewBox="0 0 25 25" fill="none" xmlns="http://www.w3.org/2000/svg">
<path d="M12.5 6.25L13.9938 9.14297L17.1875 9.60703L14.8438 11.7188L15.625 14.8438L12.5 13.0859L9.375 14.8438L10.1562 11.7188L7.8125 9.60703L11.0937 9.14297L12.5 6.25Z" fill="#CE63EE"/>
<path d="M13.8562 23.4375L12.5 22.6562L15.625 17.1875H20.3125C20.5178 17.1878 20.7211 17.1476 20.9108 17.0692C21.1005 16.9908 21.2729 16.8757 21.418 16.7305C21.5632 16.5854 21.6783 16.413 21.7567 16.2233C21.8351 16.0336 21.8753 15.8303 21.875 15.625V6.25C21.8753 6.04472 21.8351 5.8414 21.7567 5.65169C21.6783 5.46198 21.5632 5.28961 21.418 5.14446C21.2729 4.9993 21.1005 4.88422 20.9108 4.80581C20.7211 4.7274 20.5178 4.68719 20.3125 4.6875H4.6875C4.48222 4.68719 4.2789 4.7274 4.08919 4.80581C3.89948 4.88422 3.72711 4.9993 3.58196 5.14446C3.4368 5.28961 3.32172 5.46198 3.24331 5.65169C3.1649 5.8414 3.12469 6.04472 3.125 6.25V15.625C3.12469 15.8303 3.1649 16.0336 3.24331 16.2233C3.32172 16.413 3.4368 16.5854 3.58196 16.7305C3.72711 16.8757 3.89948 16.9908 4.08919 17.0692C4.2789 17.1476 4.48222 17.1878 4.6875 17.1875H11.7188V18.75H4.6875C3.8587 18.75 3.06384 18.4208 2.47779 17.8347C1.89174 17.2487 1.5625 16.4538 1.5625 15.625V6.25C1.5625 5.4212 1.89174 4.62634 2.47779 4.04029C3.06384 3.45424 3.8587 3.125 4.6875 3.125H20.3125C21.1413 3.125 21.9362 3.45424 22.5222 4.04029C23.1083 4.62634 23.4375 5.4212 23.4375 6.25V15.625C23.4375 16.4538 23.1083 17.2487 22.5222 17.8347C21.9362 18.4208 21.1413 18.75 20.3125 18.75H16.5352L13.8562 23.4375Z" fill="#CE63EE"/>
</svg>
