<svg width="17" height="17" viewBox="0 0 17 17" fill="none" xmlns="http://www.w3.org/2000/svg">
<path d="M15.1667 1H1.83333C1.3731 1 1 1.3731 1 1.83333V6C1 6.46024 1.3731 6.83333 1.83333 6.83333H15.1667C15.6269 6.83333 16 6.46024 16 6V1.83333C16 1.3731 15.6269 1 15.1667 1Z" stroke="#CE63EE" stroke-width="1.66667" stroke-linecap="round" stroke-linejoin="round"/>
<path d="M7.66667 10.1665H1.83333C1.3731 10.1665 1 10.5396 1 10.9998V15.1665C1 15.6267 1.3731 15.9998 1.83333 15.9998H7.66667C8.1269 15.9998 8.5 15.6267 8.5 15.1665V10.9998C8.5 10.5396 8.1269 10.1665 7.66667 10.1665Z" stroke="#CE63EE" stroke-width="1.66667" stroke-linecap="round" stroke-linejoin="round"/>
<path d="M15.1668 10.1665H12.6668C12.2066 10.1665 11.8335 10.5396 11.8335 10.9998V15.1665C11.8335 15.6267 12.2066 15.9998 12.6668 15.9998H15.1668C15.6271 15.9998 16.0002 15.6267 16.0002 15.1665V10.9998C16.0002 10.5396 15.6271 10.1665 15.1668 10.1665Z" stroke="#CE63EE" stroke-width="1.66667" stroke-linecap="round" stroke-linejoin="round"/>
</svg>
