<svg width="20" height="20" viewBox="0 0 20 20" fill="none" xmlns="http://www.w3.org/2000/svg">
<path fill-rule="evenodd" clip-rule="evenodd" d="M13.75 7.72292C14.2346 7.86792 14.5833 7.91667 14.5833 7.91667V6.66667H15.4167C15.9692 6.66667 16.4991 6.44717 16.8898 6.05647C17.2805 5.66577 17.5 5.13587 17.5 4.58333C17.5 4.0308 17.2805 3.5009 16.8898 3.11019C16.4991 2.71949 15.9692 2.5 15.4167 2.5H13.015C12.4364 2.5 11.8815 2.72985 11.4723 3.139C11.0632 3.54814 10.8333 4.10305 10.8333 4.68167C10.8333 6.56417 12.645 7.3925 13.75 7.72292ZM16.6667 4.58333C16.6667 4.91485 16.535 5.2328 16.3005 5.46722C16.0661 5.70164 15.7482 5.83333 15.4167 5.83333H13.75V6.84792C13.5214 6.77027 13.2983 6.67742 13.0821 6.57C12.2558 6.15583 11.6667 5.56667 11.6667 4.68167C11.6667 4.32407 11.8087 3.98111 12.0616 3.72825C12.3144 3.47539 12.6574 3.33333 13.015 3.33333H15.4167C15.7482 3.33333 16.0661 3.46503 16.3005 3.69945C16.535 3.93387 16.6667 4.25181 16.6667 4.58333ZM6.17375 7.49708C5.62772 7.47818 5.11098 7.24544 4.73496 6.84905C4.35894 6.45267 4.15376 5.92439 4.16366 5.37812C4.17355 4.83185 4.39773 4.31134 4.78786 3.92883C5.17798 3.54633 5.70281 3.33245 6.24917 3.33333H7.56958C8.10366 3.33333 8.61587 3.5455 8.99352 3.92315C9.37117 4.3008 9.58333 4.813 9.58333 5.34708C9.58333 7.03125 8.07083 7.80125 7.08333 8.125C6.605 8.28167 6.25 8.33333 6.25 8.33333V7.5L6.17375 7.49708ZM7.08333 6.69625L6.20417 6.66458C5.87379 6.6574 5.55971 6.5196 5.33071 6.28136C5.10171 6.04311 4.97644 5.72383 4.98234 5.39342C4.98824 5.06301 5.12482 4.74841 5.36217 4.51848C5.59953 4.28856 5.91832 4.16205 6.24875 4.16667H7.56917C7.72422 4.16661 7.87776 4.1971 8.02102 4.2564C8.16428 4.3157 8.29446 4.40264 8.40412 4.51226C8.51377 4.62187 8.60076 4.75202 8.66011 4.89526C8.71945 5.0385 8.75 5.19203 8.75 5.34708C8.75 6.145 8.24292 6.66792 7.53167 7.03875C7.38167 7.11708 7.22958 7.18375 7.08333 7.24042V6.69625ZM11.6667 10C11.6667 10.9208 10.9208 11.6667 10 11.6667C9.07917 11.6667 8.33333 10.9208 8.33333 10C8.33333 9.07917 9.07917 8.33333 10 8.33333C10.9208 8.33333 11.6667 9.07917 11.6667 10ZM10.8333 10C10.8333 10.221 10.7455 10.433 10.5893 10.5893C10.433 10.7455 10.221 10.8333 10 10.8333C9.77899 10.8333 9.56702 10.7455 9.41074 10.5893C9.25446 10.433 9.16667 10.221 9.16667 10C9.16667 9.77899 9.25446 9.56702 9.41074 9.41074C9.56702 9.25446 9.77899 9.16667 10 9.16667C10.221 9.16667 10.433 9.25446 10.5893 9.41074C10.7455 9.56702 10.8333 9.77899 10.8333 10ZM7.91667 10.8333C7.91667 11.7542 7.17083 12.5 6.25 12.5C5.32917 12.5 4.58333 11.7542 4.58333 10.8333C4.58333 9.9125 5.32917 9.16667 6.25 9.16667C7.17083 9.16667 7.91667 9.9125 7.91667 10.8333ZM7.08333 10.8333C7.08333 11.0543 6.99554 11.2663 6.83926 11.4226C6.68298 11.5789 6.47101 11.6667 6.25 11.6667C6.02899 11.6667 5.81702 11.5789 5.66074 11.4226C5.50446 11.2663 5.41667 11.0543 5.41667 10.8333C5.41667 10.6123 5.50446 10.4004 5.66074 10.2441C5.81702 10.0878 6.02899 10 6.25 10C6.47101 10 6.68298 10.0878 6.83926 10.2441C6.99554 10.4004 7.08333 10.6123 7.08333 10.8333ZM2.5 15.2275C2.5 13.9675 4.99833 13.3333 6.25 13.3333C6.49375 13.3333 6.785 13.3575 7.09583 13.4054C7.65458 12.9958 8.67792 12.5 10 12.5C11.3221 12.5 12.3454 12.9958 12.9046 13.4054C13.1842 13.3603 13.4668 13.3362 13.75 13.3333C15.0017 13.3333 17.5 13.9679 17.5 15.2271V17.5H2.5V15.2275ZM9.02167 15.0096C9.16667 15.1446 9.16667 15.215 9.16667 15.2271V16.6667H3.33333V15.2271C3.33333 15.2146 3.33333 15.1446 3.47833 15.0096C3.62958 14.8683 3.87917 14.7179 4.21833 14.5804C4.89833 14.3054 5.72917 14.1667 6.25 14.1667C6.77083 14.1667 7.60167 14.3054 8.28167 14.5804C8.62083 14.7179 8.87042 14.8683 9.02167 15.0096ZM11.7258 13.69C11.1811 13.4542 10.5936 13.3328 10 13.3333C9.31 13.3333 8.72333 13.4942 8.27458 13.69C9.1975 14 10 14.5133 10 15.2275C10 14.5133 10.8025 14.0004 11.7258 13.69ZM16.6667 15.2275C16.6667 15.215 16.6667 15.1446 16.5217 15.0096C16.3704 14.8683 16.1208 14.7179 15.7817 14.5804C15.1017 14.3054 14.2708 14.1667 13.75 14.1667C13.2292 14.1667 12.3983 14.3054 11.7183 14.5804C11.3792 14.7179 11.1296 14.8683 10.9783 15.0096C10.8333 15.1446 10.8333 15.215 10.8333 15.2271V16.6667H16.6667V15.2275ZM13.75 12.5C14.6708 12.5 15.4167 11.7542 15.4167 10.8333C15.4167 9.9125 14.6708 9.16667 13.75 9.16667C12.8292 9.16667 12.0833 9.9125 12.0833 10.8333C12.0833 11.7542 12.8292 12.5 13.75 12.5ZM13.75 11.6667C13.971 11.6667 14.183 11.5789 14.3393 11.4226C14.4955 11.2663 14.5833 11.0543 14.5833 10.8333C14.5833 10.6123 14.4955 10.4004 14.3393 10.2441C14.183 10.0878 13.971 10 13.75 10C13.529 10 13.317 10.0878 13.1607 10.2441C13.0045 10.4004 12.9167 10.6123 12.9167 10.8333C12.9167 11.0543 13.0045 11.2663 13.1607 11.4226C13.317 11.5789 13.529 11.6667 13.75 11.6667Z" fill="#CE63EE"/>
</svg>
