<svg width="25" height="25" viewBox="0 0 25 25" fill="none" xmlns="http://www.w3.org/2000/svg">
<rect width="25" height="25" rx="6" fill="#2E60FF"/>
<path d="M9.90909 13.2632H18.5455L15.5659 9.47368L13.5795 12L12.2409 10.3158L9.90909 13.2632ZM4.72727 20C4.25227 20 3.84579 19.8352 3.50782 19.5057C3.16985 19.1761 3.00058 18.7795 3 18.3158V7.36842H4.72727V18.3158H19.4091V20H4.72727ZM8.18182 16.6316C7.70682 16.6316 7.30033 16.4668 6.96236 16.1373C6.62439 15.8077 6.45512 15.4111 6.45455 14.9474V5.68421C6.45455 5.22105 6.62382 4.8247 6.96236 4.49516C7.30091 4.16561 7.70739 4.00056 8.18182 4H12.5L14.2273 5.68421H20.2727C20.7477 5.68421 21.1545 5.84926 21.493 6.17937C21.8316 6.50947 22.0006 6.90582 22 7.36842V14.9474C22 15.4105 21.831 15.8072 21.493 16.1373C21.1551 16.4674 20.7483 16.6321 20.2727 16.6316H8.18182ZM8.18182 14.9474H20.2727V7.36842H13.5148L11.7875 5.68421H8.18182V14.9474Z" fill="white"/>
</svg>
