<svg width="20" height="20" viewBox="0 0 20 20" fill="none" xmlns="http://www.w3.org/2000/svg">
<path d="M10.0002 13.686C10.1457 13.686 10.2677 13.6368 10.366 13.5385C10.4638 13.4402 10.5127 13.3185 10.5127 13.1735C10.5127 13.0285 10.4635 12.9066 10.3652 12.8077C10.2668 12.7088 10.1452 12.6596 10.0002 12.6602C9.85516 12.6607 9.7335 12.7099 9.63516 12.8077C9.53683 12.9054 9.48766 13.0274 9.48766 13.1735C9.48766 13.3196 9.53683 13.4413 9.63516 13.5385C9.7335 13.6357 9.85516 13.6849 10.0002 13.686ZM9.5835 11.2185H10.4168V6.1535H9.5835V11.2185ZM7.22766 16.6668L3.3335 12.7802V7.22766L7.22016 3.3335H12.7727L16.6668 7.22016V12.7727L12.7802 16.6668H7.22766ZM7.5835 15.8335H12.4168L15.8335 12.4168V7.5835L12.4168 4.16683H7.5835L4.16683 7.5835V12.4168L7.5835 15.8335Z" fill="#CE63EE"/>
</svg>
