<svg width="27" height="27" viewBox="0 0 27 27" fill="none" xmlns="http://www.w3.org/2000/svg">
<path fill-rule="evenodd" clip-rule="evenodd" d="M13.5 4.5C13.9518 4.5 14.3949 4.53257 14.8295 4.59771L15.4826 6.57643C16.0548 6.73971 16.5986 6.97243 17.1026 7.26557L18.9798 6.36043C19.6445 6.87086 20.2359 7.47257 20.7348 8.14629L19.7962 10.0067C20.0816 10.5176 20.3019 11.0619 20.457 11.6396L22.4242 12.3249C22.5337 13.1567 22.5263 13.9997 22.4023 14.8294L20.4236 15.4826C20.261 16.0487 20.0296 16.5928 19.7345 17.1026L20.6396 18.9797C20.129 19.6451 19.5279 20.2358 18.8538 20.7347L16.9933 19.7961C16.4787 20.0836 15.9302 20.3056 15.3605 20.457L14.6752 22.4241C13.8434 22.5336 13.0004 22.5263 12.1706 22.4023L11.5175 20.4236C10.9513 20.261 10.4072 20.0295 9.89747 19.7344L8.02033 20.6396C7.35498 20.129 6.76426 19.5279 6.26533 18.8537L7.2039 16.9933C6.91761 16.4781 6.69567 15.9297 6.54304 15.3604L4.5759 14.6739C4.46653 13.8425 4.47389 12.9999 4.59776 12.1706L6.57647 11.5174C6.73976 10.9453 6.97247 10.4014 7.26561 9.89743L6.36047 8.02029C6.87108 7.35493 7.47218 6.76422 8.14633 6.26529L10.0068 7.20386C10.5214 6.91638 11.0699 6.69437 11.6396 6.543L12.3262 4.57586C12.711 4.52529 13.1023 4.5 13.5 4.5Z" stroke="#CE63EE" stroke-width="0.888571" stroke-linecap="round" stroke-linejoin="round"/>
<path d="M13.5002 17.3574C15.6305 17.3574 17.3574 15.6305 17.3574 13.5002C17.3574 11.37 15.6305 9.64307 13.5002 9.64307C11.37 9.64307 9.64307 11.37 9.64307 13.5002C9.64307 15.6305 11.37 17.3574 13.5002 17.3574Z" stroke="#CE63EE" stroke-width="0.952381" stroke-linecap="round" stroke-linejoin="round"/>
</svg>
