<svg width="15" height="18" viewBox="0 0 15 18" fill="none" xmlns="http://www.w3.org/2000/svg">
<path d="M14 12.1447V16.8453H1V12.1447C1 12.1447 3.49873 10.6449 7.5 10.6449C11.4999 10.6449 14 12.1447 14 12.1447ZM4.00027 4.49974C4.001 3.57118 4.37042 2.68091 5.02734 2.02464C5.68425 1.36837 6.57488 0.999817 7.50345 1C7.96293 0.999819 8.41793 1.09024 8.84243 1.2661C9.26692 1.44196 9.65258 1.69979 9.97732 2.02485C10.3021 2.34992 10.5595 2.73582 10.735 3.16049C10.9104 3.58516 11.0004 4.04026 10.9997 4.49974C10.9997 7.17965 7.57303 9.00048 7.57303 9.00048H7.4256C7.4256 9.00048 4.00027 7.17965 4.00027 4.49974Z" stroke="#CE63EE" stroke-width="0.833333"/>
</svg>
