<svg width="20" height="20" viewBox="0 0 20 20" fill="none" xmlns="http://www.w3.org/2000/svg">
<path d="M17.8125 15.5195V18.75C17.8125 18.8329 17.7796 18.9124 17.721 18.971C17.6624 19.0296 17.5829 19.0625 17.5 19.0625C17.4171 19.0625 17.3376 19.0296 17.279 18.971C17.2204 18.9124 17.1875 18.8329 17.1875 18.75V15.5195C17.1847 14.5588 16.9571 13.6121 16.523 12.755C16.0889 11.8979 15.4603 11.1543 14.6875 10.5836V15.8055C14.6876 15.8728 14.6659 15.9384 14.6256 15.9924C14.5854 16.0465 14.5288 16.0861 14.4642 16.1053C14.3997 16.1245 14.3306 16.1224 14.2674 16.0992C14.2041 16.076 14.1501 16.033 14.1133 15.9766L13.2812 14.7023L13.2719 14.6875C13.107 14.3998 12.8347 14.1894 12.5147 14.1025C12.1947 14.0156 11.8533 14.0594 11.5656 14.2242C11.2779 14.389 11.0675 14.6614 10.9806 14.9814C10.8937 15.3014 10.9375 15.6428 11.1023 15.9305L12.8367 18.5789C12.8607 18.6132 12.8775 18.652 12.8863 18.6929C12.895 18.7338 12.8954 18.7761 12.8875 18.8171C12.8795 18.8582 12.8634 18.8973 12.8401 18.932C12.8168 18.9668 12.7868 18.9965 12.7518 19.0194C12.7168 19.0423 12.6775 19.058 12.6364 19.0655C12.5952 19.0729 12.5529 19.072 12.5121 19.0629C12.4713 19.0537 12.4327 19.0364 12.3987 19.0121C12.3647 18.9877 12.3359 18.9568 12.3141 18.9211L10.575 16.2648C10.5714 16.2602 10.5683 16.2552 10.5656 16.25C10.32 15.8202 10.2544 15.3107 10.383 14.8326C10.5116 14.3546 10.8241 13.9468 11.2522 13.6983C11.6803 13.4497 12.1893 13.3805 12.6682 13.5059C13.1472 13.6312 13.5571 13.9408 13.8086 14.3672L14.0641 14.7578V5C14.0641 4.91712 14.0311 4.83763 13.9725 4.77903C13.9139 4.72042 13.8344 4.6875 13.7516 4.6875H12.5C12.4171 4.6875 12.3376 4.65458 12.279 4.59597C12.2204 4.53737 12.1875 4.45788 12.1875 4.375C12.1875 4.29212 12.2204 4.21263 12.279 4.15403C12.3376 4.09542 12.4171 4.0625 12.5 4.0625H13.75C13.9986 4.0625 14.2371 4.16127 14.4129 4.33709C14.5887 4.5129 14.6875 4.75136 14.6875 5V9.82656C15.6429 10.4385 16.4295 11.2803 16.9754 12.2748C17.5214 13.2694 17.8092 14.385 17.8125 15.5195ZM6.25 4.0625H5C4.75136 4.0625 4.5129 4.16127 4.33709 4.33709C4.16127 4.5129 4.0625 4.75136 4.0625 5V15.625C4.0625 15.7079 4.09542 15.7874 4.15403 15.846C4.21263 15.9046 4.29212 15.9375 4.375 15.9375C4.45788 15.9375 4.53737 15.9046 4.59597 15.846C4.65458 15.7874 4.6875 15.7079 4.6875 15.625V5C4.6875 4.91712 4.72042 4.83763 4.77903 4.77903C4.83763 4.72042 4.91712 4.6875 5 4.6875H6.25C6.33288 4.6875 6.41237 4.65458 6.47097 4.59597C6.52958 4.53737 6.5625 4.45788 6.5625 4.375C6.5625 4.29212 6.52958 4.21263 6.47097 4.15403C6.41237 4.09542 6.33288 4.0625 6.25 4.0625ZM12.0961 7.90391C12.0671 7.87485 12.0326 7.8518 11.9947 7.83607C11.9567 7.82035 11.9161 7.81225 11.875 7.81225C11.8339 7.81225 11.7933 7.82035 11.7553 7.83607C11.7174 7.8518 11.6829 7.87485 11.6539 7.90391L9.6875 9.87031V1.25C9.6875 1.16712 9.65458 1.08763 9.59597 1.02903C9.53737 0.970424 9.45788 0.9375 9.375 0.9375C9.29212 0.9375 9.21263 0.970424 9.15403 1.02903C9.09542 1.08763 9.0625 1.16712 9.0625 1.25V9.87031L7.09609 7.90391C7.03746 7.84527 6.95793 7.81233 6.875 7.81233C6.79207 7.81233 6.71254 7.84527 6.65391 7.90391C6.59527 7.96254 6.56233 8.04207 6.56233 8.125C6.56233 8.20793 6.59527 8.28746 6.65391 8.34609L9.15391 10.8461C9.18293 10.8751 9.21739 10.8982 9.25533 10.9139C9.29327 10.9297 9.33393 10.9377 9.375 10.9377C9.41607 10.9377 9.45673 10.9297 9.49467 10.9139C9.53261 10.8982 9.56707 10.8751 9.59609 10.8461L12.0961 8.34609C12.1251 8.31707 12.1482 8.28261 12.1639 8.24467C12.1797 8.20673 12.1877 8.16607 12.1877 8.125C12.1877 8.08393 12.1797 8.04327 12.1639 8.00533C12.1482 7.96739 12.1251 7.93293 12.0961 7.90391Z" fill="#CE63EE"/>
</svg>
